<svg xmlns="http://www.w3.org/2000/svg" viewBox="0 0 240 48" fill="none">
  <defs>
    <linearGradient id="logoGrad" x1="0%" y1="0%" x2="100%" y2="100%">
      <stop offset="0%" stop-color="#1e40af"/>
      <stop offset="100%" stop-color="#6366f1"/>
    </linearGradient>
  </defs>
  <rect x="4" y="16" width="12" height="28" rx="1" fill="url(#logoGrad)"/>
  <rect x="18" y="8" width="16" height="36" rx="1" fill="url(#logoGrad)"/>
  <rect x="36" y="20" width="10" height="24" rx="1" fill="url(#logoGrad)"/>
  <rect x="7" y="20" width="3" height="3" rx="0.5" fill="white" opacity="0.9"/>
  <rect x="7" y="26" width="3" height="3" rx="0.5" fill="white" opacity="0.9"/>
  <rect x="7" y="32" width="3" height="3" rx="0.5" fill="white" opacity="0.9"/>
  <rect x="22" y="12" width="3" height="3" rx="0.5" fill="white" opacity="0.9"/>
  <rect x="28" y="12" width="3" height="3" rx="0.5" fill="white" opacity="0.9"/>
  <rect x="22" y="18" width="3" height="3" rx="0.5" fill="white" opacity="0.9"/>
  <rect x="28" y="18" width="3" height="3" rx="0.5" fill="white" opacity="0.9"/>
  <rect x="22" y="24" width="3" height="3" rx="0.5" fill="white" opacity="0.9"/>
  <rect x="28" y="24" width="3" height="3" rx="0.5" fill="white" opacity="0.9"/>
  <rect x="22" y="30" width="3" height="3" rx="0.5" fill="white" opacity="0.9"/>
  <rect x="28" y="30" width="3" height="3" rx="0.5" fill="white" opacity="0.9"/>
  <rect x="24" y="36" width="4" height="8" rx="0.5" fill="white" opacity="0.7"/>
  <rect x="39" y="24" width="3" height="3" rx="0.5" fill="white" opacity="0.9"/>
  <rect x="39" y="30" width="3" height="3" rx="0.5" fill="white" opacity="0.9"/>
  <text x="56" y="33" font-family="system-ui, -apple-system, sans-serif" font-size="22" font-weight="700" fill="url(#logoGrad)">Smart Obra</text>
</svg>
